<?xml version="1.0" encoding="utf-8"?>
<!-- Generator: Adobe Illustrator 25.2.2, SVG Export Plug-In . SVG Version: 6.00 Build 0)  -->
<svg version="1.1" id="Ebene_1" xmlns="http://www.w3.org/2000/svg" xmlns:xlink="http://www.w3.org/1999/xlink" x="0px" y="0px"
	 viewBox="0 0 20 20" style="enable-background:new 0 0 20 20;" xml:space="preserve">
<style type="text/css">
	.st0{fill:#FFFFFF;}
</style>
<path class="st0" d="M15.36,1.43c0.89,0,1.64,0.31,2.27,0.94c0.63,0.63,0.94,1.39,0.94,2.27v10.71c0,0.89-0.31,1.64-0.94,2.27
	c-0.63,0.63-1.39,0.94-2.27,0.94h-2.1v-6.64h2.22l0.33-2.59h-2.56V7.69c0-0.42,0.09-0.73,0.26-0.94c0.17-0.21,0.52-0.31,1.02-0.31
	l1.36-0.01V4.12c-0.47-0.07-1.13-0.1-1.99-0.1c-1.01,0-1.82,0.3-2.43,0.89s-0.91,1.44-0.91,2.52v1.91H8.35v2.59h2.23v6.64H4.64
	c-0.89,0-1.64-0.31-2.27-0.94C1.74,17,1.43,16.24,1.43,15.36V4.64c0-0.89,0.31-1.64,0.94-2.27s1.39-0.94,2.27-0.94H15.36z"/>
</svg>
