<?xml version="1.0" encoding="utf-8"?>
<!-- Generator: Adobe Illustrator 25.2.2, SVG Export Plug-In . SVG Version: 6.00 Build 0)  -->
<svg version="1.1" id="Ebene_1" xmlns="http://www.w3.org/2000/svg" xmlns:xlink="http://www.w3.org/1999/xlink" x="0px" y="0px"
	 viewBox="0 0 100 100" style="enable-background:new 0 0 100 100;" xml:space="preserve">
<style type="text/css">
	.st0{fill:#4267B2;}
</style>
<g>
	<path class="st0" d="M96,79.33c0,4.8-1.7,8.9-5.11,12.31c-3.41,3.41-7.51,5.11-12.31,5.11H66.98V59.98h12.28l1.81-13.54H66.98
		v-8.65c0-2.18,0.56-3.85,1.69-5.02c1.13-1.17,3.06-1.75,5.8-1.75l7.98-0.06V18.44c-3.87-0.36-7.5-0.54-10.88-0.54
		c-5.48,0-9.88,1.62-13.18,4.87c-3.31,3.25-4.96,7.79-4.96,13.64v10.04H39.89v13.54h13.55v36.77h-32.9c-4.8,0-8.9-1.7-12.31-5.11
		c-3.41-3.41-5.11-7.51-5.11-12.31V21.28c0-4.8,1.7-8.9,5.11-12.31c3.41-3.41,7.51-5.11,12.31-5.11h58.05c4.8,0,8.9,1.7,12.31,5.11
		C94.3,12.38,96,16.48,96,21.28V79.33z"/>
</g>
</svg>
